<svg xmlns="http://www.w3.org/2000/svg" width="32" height="32" viewBox="0 0 32 32">
  <g fill="none" fill-rule="evenodd">
    <circle cx="16" cy="16" r="16" fill="#F5AC37"/>
    <path fill="#FFF" d="M15.998 28c-6.075 0-11-4.925-11-11s4.925-11 11-11 11 4.925 11 11-4.925 11-11 11zm.005-14.792v-2.375h-4.718v2.375h4.718zm.015 7.583v-2.374h-4.733v2.374h4.733zm6.719-7.583v-2.375h-4.729v2.375h4.729zm.014 7.583v-2.374h-4.743v2.374h4.743zm-6.733-3.792v-2.374h-4.718v2.374h4.718zm6.719 0v-2.374h-4.729v2.374h4.729z"/>
  </g>
</svg> 