<svg xmlns="http://www.w3.org/2000/svg" width="32" height="32" viewBox="0 0 32 32">
  <defs>
    <linearGradient id="weth" x1="0%" y1="0%" x2="100%" y2="100%">
      <stop offset="0%" style="stop-color:#627EEA"/>
      <stop offset="100%" style="stop-color:#8B9CF4"/>
    </linearGradient>
  </defs>
  <g fill="none" fill-rule="evenodd">
    <circle cx="16" cy="16" r="16" fill="url(#weth)"/>
    <g fill="#FFF" fill-rule="nonzero">
      <path fill-opacity=".602" d="M16.498 4v8.87l7.497 3.35z"/>
      <path d="M16.498 4L9 16.22l7.498-3.35z"/>
      <path fill-opacity=".602" d="M16.498 21.968v6.027L24 17.616z"/>
      <path d="M16.498 27.995v-6.028L9 17.616z"/>
      <path fill-opacity=".2" d="M16.498 20.573l7.497-4.353-7.497-3.348z"/>
      <path fill-opacity=".602" d="M9 16.22l7.498 4.353v-7.701z"/>
    </g>
    <path fill="#FFF" fill-opacity=".2" d="M26 16c0 5.523-4.477 10-10 10S6 21.523 6 16 10.477 6 16 6s10 4.477 10 10zm2 0c0 6.627-5.373 12-12 12S4 22.627 4 16 9.373 4 16 4s12 5.373 12 12z"/>
  </g>
</svg> 